<svg id="visual" viewBox="0 0 900 600" width="900" height="600" xmlns="http://www.w3.org/2000/svg" xmlns:xlink="http://www.w3.org/1999/xlink" version="1.1"><rect x="0" y="0" width="900" height="600" fill="#f6eec0"></rect><path d="M0 402L13.7 418.2C27.3 434.3 54.7 466.7 82 469.2C109.3 471.7 136.7 444.3 163.8 440.5C191 436.7 218 456.3 245.2 450.5C272.3 444.7 299.7 413.3 327 412.5C354.3 411.7 381.7 441.3 409 455.7C436.3 470 463.7 469 491 463.5C518.3 458 545.7 448 573 438C600.3 428 627.7 418 654.8 426.3C682 434.7 709 461.3 736.2 472.7C763.3 484 790.7 480 818 473.8C845.3 467.7 872.7 459.3 886.3 455.2L900 451L900 601L886.3 601C872.7 601 845.3 601 818 601C790.7 601 763.3 601 736.2 601C709 601 682 601 654.8 601C627.7 601 600.3 601 573 601C545.7 601 518.3 601 491 601C463.7 601 436.3 601 409 601C381.7 601 354.3 601 327 601C299.7 601 272.3 601 245.2 601C218 601 191 601 163.8 601C136.7 601 109.3 601 82 601C54.7 601 27.3 601 13.7 601L0 601Z" fill="#bae6fd" stroke-linecap="round" stroke-linejoin="miter"></path></svg>