<svg id="visual" viewBox="0 0 900 600" width="900" height="600" xmlns="http://www.w3.org/2000/svg" xmlns:xlink="http://www.w3.org/1999/xlink" version="1.1"><rect x="0" y="0" width="900" height="600" fill="#121212"></rect><defs><linearGradient id="grad1_0" x1="33.3%" y1="100%" x2="100%" y2="0%"><stop offset="20%" stop-color="#121212" stop-opacity="1"></stop><stop offset="80%" stop-color="#121212" stop-opacity="1"></stop></linearGradient></defs><defs><linearGradient id="grad2_0" x1="0%" y1="100%" x2="66.7%" y2="0%"><stop offset="20%" stop-color="#121212" stop-opacity="1"></stop><stop offset="80%" stop-color="#121212" stop-opacity="1"></stop></linearGradient></defs><g transform="translate(900, 600)"><path d="M-135.2 0C-132 -24.2 -128.7 -48.3 -117.1 -67.6C-105.5 -86.9 -85.4 -101.3 -64.5 -111.7C-43.6 -122.2 -21.8 -128.7 0 -135.2L0 0Z" fill="#bae6fd"></path></g><g transform="translate(0, 0)"><path d="M135.2 0C129.6 22.3 124 44.7 113.4 65.5C102.9 86.3 87.3 105.7 67.6 117.1C47.9 128.5 23.9 131.8 0 135.2L0 0Z" fill="#bae6fd"></path></g></svg>