<svg id="visual" viewBox="0 0 900 600" width="900" height="600" xmlns="http://www.w3.org/2000/svg" xmlns:xlink="http://www.w3.org/1999/xlink" version="1.1"><rect x="0" y="0" width="900" height="600" fill="#bae6fd"></rect><defs><linearGradient id="grad1_0" x1="33.3%" y1="100%" x2="100%" y2="0%"><stop offset="20%" stop-color="#bae6fd" stop-opacity="1"></stop><stop offset="80%" stop-color="#bae6fd" stop-opacity="1"></stop></linearGradient></defs><defs><linearGradient id="grad2_0" x1="0%" y1="100%" x2="66.7%" y2="0%"><stop offset="20%" stop-color="#bae6fd" stop-opacity="1"></stop><stop offset="80%" stop-color="#bae6fd" stop-opacity="1"></stop></linearGradient></defs><g transform="translate(900, 600)"><path d="M-243.4 0C-237.2 -42.9 -231.1 -85.9 -210.8 -121.7C-190.5 -157.5 -156 -186.2 -118.5 -205.2C-81 -224.3 -40.5 -233.9 0 -243.4L0 0Z" fill="#121212"></path></g><g transform="translate(0, 0)"><path d="M243.4 0C237.8 44 232.3 88 210.8 121.7C189.3 155.4 151.8 178.9 114 197.5C76.2 216 38.1 229.7 0 243.4L0 0Z" fill="#121212"></path></g></svg>