<svg xmlns="http://www.w3.org/2000/svg" xmlns:xlink="http://www.w3.org/1999/xlink" viewBox="0 0 498.61 506.61"><defs><style>.cls-1,.cls-12,.cls-19,.cls-21,.cls-24{fill:none;}.cls-1{stroke:#79c0ea;}.cls-1,.cls-12,.cls-19,.cls-21,.cls-24,.cls-26,.cls-27,.cls-29{stroke-miterlimit:10;}.cls-2{fill:#ca9672;}.cls-3{fill:#634938;}.cls-4{fill:url(#Degradado_sin_nombre_14);}.cls-5{fill:#26272c;}.cls-6{fill:#30241b;}.cls-7{fill:url(#Degradado_sin_nombre_14-2);}.cls-8{fill:#967055;}.cls-9{fill:#77553e;}.cls-10{fill:url(#Degradado_sin_nombre_57);}.cls-11{fill:url(#Degradado_sin_nombre_20);}.cls-12,.cls-24,.cls-26,.cls-27,.cls-29{stroke:#000;}.cls-13{fill:url(#Degradado_sin_nombre_43);}.cls-14{fill:url(#Degradado_sin_nombre_43-2);}.cls-15{fill:#564030;}.cls-16{fill:#7c5c45;}.cls-17{fill:#150f0c;}.cls-18{fill:#79c0ea;}.cls-19{stroke:#5e96b6;}.cls-20{fill:#5e96b6;}.cls-21{stroke:#83c9ff;}.cls-22{fill:#58c7db;}.cls-23{fill:#4398a7;}.cls-24{stroke-width:0.5px;}.cls-25{fill:#436b83;}.cls-26{fill:url(#Degradado_sin_nombre_60);}.cls-27{fill:#b2b2b2;}.cls-28{fill:#cbcbcb;}.cls-29{fill:#fefefe;}</style><linearGradient id="Degradado_sin_nombre_14" x1="295.53" y1="135.02" x2="286.23" y2="133" gradientUnits="userSpaceOnUse"><stop offset="0" stop-color="#967055"/><stop offset="0.26" stop-color="#9b7458"/><stop offset="0.57" stop-color="#aa7f60"/><stop offset="0.91" stop-color="#c3916e"/><stop offset="1" stop-color="#ca9672"/></linearGradient><linearGradient id="Degradado_sin_nombre_14-2" x1="255.62" y1="90.21" x2="235.66" y2="72.41" xlink:href="#Degradado_sin_nombre_14"/><radialGradient id="Degradado_sin_nombre_57" cx="237.55" cy="153.97" r="11.97" gradientUnits="userSpaceOnUse"><stop offset="0" stop-color="#967055"/><stop offset="1"/></radialGradient><linearGradient id="Degradado_sin_nombre_20" x1="242.53" y1="139.11" x2="244.53" y2="139.11" gradientUnits="userSpaceOnUse"><stop offset="0" stop-color="#967055"/><stop offset="0.16" stop-color="#9b7458"/><stop offset="0.35" stop-color="#aa7f60"/><stop offset="0.56" stop-color="#c3916e"/><stop offset="0.61" stop-color="#ca9672"/></linearGradient><radialGradient id="Degradado_sin_nombre_43" cx="271.33" cy="122.3" r="4.74" gradientUnits="userSpaceOnUse"><stop offset="0" stop-color="#634938"/><stop offset="1"/></radialGradient><radialGradient id="Degradado_sin_nombre_43-2" cx="215.86" cy="123.01" r="4.09" xlink:href="#Degradado_sin_nombre_43"/><linearGradient id="Degradado_sin_nombre_60" x1="250.18" y1="473.17" x2="253.82" y2="368.81" gradientUnits="userSpaceOnUse"><stop offset="0" stop-color="#5e96b6"/><stop offset="1" stop-color="#6ccedb"/></linearGradient></defs><g id="Capa_2" data-name="Capa 2"><g id="Cara"><path class="cls-1" d="M289.49,151.28a112.34,112.34,0,0,1,32,9.83c13,4,56,24,56,24,19,10,32,37,32,37,7,9,20,41,20,41,8,10,11,27,11,27,6,6,11,23,11,23,2,6-3,14-3,14l-10-6c-13-5-40,11-40,11l-1,0,15-82c3-3-4.75-9-4.75-9H87.53c-.46.07-.88.14-1.27.23,7.85-18.3,25.27-50.23,25.27-50.23,30.17-23.65,73-33.33,87.74-36.1Z"/><path class="cls-2" d="M295.92,137.25s8.65.6,13.59-11.43c0,0,4-5,2.9-23,0,0-4.05-11-16,7.07,0,0,2-10-2.06-15,0,0-3-5-6-7,0,0,.91-20.94-.1-22.47s-6-.5-6-.5l-27-.88s-10.92,19.05-24.9,22.11a30.72,30.72,0,0,1-26-.88s-7-5-8-7a64.21,64.21,0,0,0-2,10s-4,4-5,7c0,0,0,3,1.05,12l-1,7a64.52,64.52,0,0,0-5.05-11s-6-3-5,4c0,0,.55,23,9.84,26,0,0,2.27-1,2.28,0,0,0,3.09,21,16.14,31.92,0,0,21.09,19.91,28.12,25.88,0,0,6,4,17-1.08,0,0,26.91-21.12,33.86-33.15,0,0,9.6-18.05,9.23-24"/><path d="M289.05,57.76c-3.39-1.46-7.42,3.35-10,7.22l3.47.13s5-1,6,.53c.34.53.45,3.36.44,6.85v1.29C300.48,64.26,289.05,57.76,289.05,57.76Z"/><rect class="cls-3" x="231.03" y="166.61" width="26" height="1"/><path class="cls-4" d="M312.41,102.81s-4.05-11-16,7.07a31.68,31.68,0,0,0,.47-6c-4.2,8.68-7.86,39.25-7.86,39.25-.64,4.94-7.77,17.82-12.6,26.08,4.34-4.37,8.15-8.73,10.21-12.29,0,0,9-16.89,9.23-23.42l0,3.74s8.65.6,13.59-11.43C309.51,125.82,313.49,120.81,312.41,102.81Z"/><path d="M296,136.75c6.32-.05,11-5.62,13.23-11.06,2.86-5,3-11.35,3.18-17,0-1.46-.06-4.4-.14-5.86-1.7-4-5.5-3.89-8.69-1.18a37.91,37.91,0,0,0-7.14,8.36,30.74,30.74,0,0,0,.46-3.58,17.88,17.88,0,0,1-.43,3.45c2.78-3.93,6.67-10.31,12-10.5a5.09,5.09,0,0,1,4.19,3.43l.15,2.94c.06,1.47.08,4.41.05,5.88-.23,4.78-.65,10.41-2.95,14.34-2.32,5.85-7.18,11.68-14,11.79l.07-1Z"/><path class="cls-5" d="M297.76,118.62c1.72-3.59,7.16-12.56,11.83-11.35a3.16,3.16,0,0,0-2,.4c-4.06,2.46-6.9,7.28-9.82,11Z"/><path class="cls-5" d="M299,130.61c2.51-2.87,5.17-5.59,7.42-8.67a8.78,8.78,0,0,0,1.62-3.37,6.75,6.75,0,0,1-1.13,3.68,30.28,30.28,0,0,1-7.91,8.36Z"/><path class="cls-5" d="M191.78,129.68c-1.73-3.73-3.24-7.55-4.65-11.41s-2.92-7.78-3.34-11.85c.81,3.43,2.9,8.19,4.05,11.59,1.38,3.87,2.75,7.73,3.94,11.67Z"/><path class="cls-6" d="M203.53,103.11s3-6,9-5c0,0,19,4,20,10,0,0,0,4-13-2C219.53,106.11,207.53,101.11,203.53,103.11Z"/><path class="cls-6" d="M249.53,108.11s17-8,26-6c0,0,6,1,7,5,0,0-4-2-12,0,0,0-14,4-20,3C250.53,110.11,248.53,110.11,249.53,108.11Z"/><path class="cls-7" d="M255.24,64.07s-10.92,19.05-24.9,22.11a30.33,30.33,0,0,1-20.1,1.36c3.48,5.94,16.79,5.07,16.79,5.07C237,93.61,246,88,246,88c6.93-4.61,12.33-12.33,12.33-12.33a34.46,34.46,0,0,1,11.41-11.12Z"/><path class="cls-8" d="M244,147.61s7,6,4,8c0,0-5,3-6,2C242,157.61,242,147.61,244,147.61Z"/><path class="cls-9" d="M244,147.61c1.81,1.5,6.16,5.08,4.76,7.71a8.51,8.51,0,0,1-2.72,1.75,10.4,10.4,0,0,1-3,1.07,1.59,1.59,0,0,1-1.28-.28c-.13-.11-.1-.08-.1-.25.09-2,.18-9.53,2.35-10Zm0,0c-.89.24-1,1.41-1.17,2.16a50.11,50.11,0,0,0-.49,7.84l-.1-.24c1.09.32,2.43-.55,3.48-1,.94-.59,2.73-.91,2.7-2.25-.38-2.56-2.71-4.68-4.42-6.56Z"/><rect class="cls-10" x="237.03" y="151.61" width="1" height="5"/><rect class="cls-8" x="237.03" y="152.61" width="1" height="3"/><rect class="cls-11" x="242.53" y="132.11" width="2" height="14"/><path class="cls-12" d="M197.18,112.11h34.69a4.66,4.66,0,0,1,4.66,4.66V122a12.13,12.13,0,0,1-12.13,12.13H201.46a8.93,8.93,0,0,1-8.93-8.93v-8.41a4.66,4.66,0,0,1,4.66-4.66Z"/><path d="M236.51,116.37s6.75-3.24,13.14,0l-.12,5.67h-13Z"/><path d="M186.42,101.47c2.69,3.35,5.41,8.88,7.05,12.52a4.57,4.57,0,0,0-.94,2.78v3.17C187,115,183.94,106,182.7,101.43Z"/></g><g id="Ojos"><rect class="cls-3" x="231.03" y="167.61" width="1" height="1"/><path class="cls-12" d="M281.18,135.11H264.37a14.83,14.83,0,0,1-14.84-14.84v-2.78a5.38,5.38,0,0,1,5.38-5.38h33.23a5.38,5.38,0,0,1,5.39,5.38v5.28A12.34,12.34,0,0,1,281.18,135.11Z"/><path class="cls-13" d="M270.81,119.09a4,4,0,0,0-1,.14,2.06,2.06,0,0,1,1.12,1.82,2,2,0,0,1-2,2A2.06,2.06,0,0,1,267,122a3.92,3.92,0,0,0,3.78,5,3.92,3.92,0,1,0,0-7.84Z"/><path class="cls-3" d="M256.93,120.42s9.88-5,14.74-3.29c0,0,5,.63,5.18,6.75a7.24,7.24,0,0,1-2.35,4.23,6.36,6.36,0,0,0,3.92-3.45s1.41-2-.31-5.8c0,0-1.57-2-1.73-2.2,0,0,5.8,1.57,6.43,1.88a19.13,19.13,0,0,1,4.86,2.83l1.42-1.26s-6.12-3.61-10.36-4.7c0,0-5.49-1.42-9.88-.48,0,0-6.27,1.26-9.25,3.61Z"/><path class="cls-6" d="M287.67,121.37l1.42-1.26s-6.12-3.61-10.36-4.7c0,0-5.49-1.42-9.88-.48,0,0-.64.13-1.6.38,2.3-.1,4.79,0,5.84.57a7.27,7.27,0,0,1,4.39,3.92,7.07,7.07,0,0,1,.31,5.17s-.67,1.1-1.29,2.08a7.66,7.66,0,0,0,1.92-2.39s1.41-2-.31-5.8c0,0-1.57-2-1.73-2.2,0,0,5.8,1.57,6.43,1.88A19.13,19.13,0,0,1,287.67,121.37Z"/><path class="cls-14" d="M215.86,119.09a4.66,4.66,0,0,1,1.13.14,2,2,0,0,0-1.21,1.82,2.13,2.13,0,0,0,2.21,2,2.24,2.24,0,0,0,2-1.12,3.59,3.59,0,0,1,.16,1,4.27,4.27,0,1,1-4.26-3.92Z"/><path class="cls-3" d="M230.93,120.42s-10.73-5-16-3.29a6.6,6.6,0,0,0-5.61,6.75,7.08,7.08,0,0,0,2.55,4.23,6.87,6.87,0,0,1-4.26-3.45s-1.53-2,.34-5.8c0,0,1.71-2,1.88-2.2,0,0-6.3,1.57-7,1.88,0,0-3.75,1.41-5.28,2.83L196,120.11s6.64-3.61,11.23-4.7c0,0,6-1.42,10.73-.48,0,0,6.81,1.26,10,3.61Z"/><path class="cls-6" d="M197.56,121.37,196,120.11s6.64-3.61,11.23-4.7c0,0,6-1.42,10.73-.48,0,0,.69.13,1.74.38-2.5-.1-5.2,0-6.34.57a7.79,7.79,0,0,0-4.76,3.92,6.55,6.55,0,0,0-.35,5.17s.73,1.1,1.41,2.08a7.76,7.76,0,0,1-2.09-2.39s-1.53-2,.34-5.8c0,0,1.71-2,1.88-2.2,0,0-6.3,1.57-7,1.88C202.84,118.54,199.09,120,197.56,121.37Z"/><path class="cls-6" d="M262.8,132.38c6.56-1.53,13.74-2.14,20.23,0v.1c-.87,0-1.71-.07-2.55-.11-2.45-.1-5.12-.37-7.56-.51a68.6,68.6,0,0,0-10.11.52Z"/><path class="cls-6" d="M204.72,131.53c5.82-1.71,12.69-2.95,18.32,0l0,.1a73.72,73.72,0,0,0-9.11-1,53.81,53.81,0,0,0-9.18.88Z"/></g><g id="cabello"><path class="cls-15" d="M310.53,39.11s-4-4-8-3a32.86,32.86,0,0,0-7-26s-7-10-24-10c0,0-34-1-42,3,0,0-26,11-28,12,0,0-7-1-9-3,0,0-7,4-3,13,0,0,4,5,3,7,0,0-8-7-8-10,0,0,0-9,2-10a15,15,0,0,0-6,12s-10,7-13,15a6.19,6.19,0,0,0,2,4s0,1-3,0c0,0-2,4,3,14a64.1,64.1,0,0,0,7,12,11.25,11.25,0,0,1,4,5s2,14,5,23l3,13,1.26,2.12.74-5.12c-1-9-1-12-1-12,1-3,5-7,5-7a64.68,64.68,0,0,1,2-10c1,2,8,7,8,7a30.73,30.73,0,0,0,26,1c14-3,25-22,25-22l27,1s5-1,6,.53,0,22.47,0,22.47c3,2,6,7,6,7,4,5,2,15,2,15,4-5.93,7-8.7,9.39-9.76h0S313,70.11,316.77,64.11C316.77,64.11,321.53,48.11,310.53,39.11Z"/><path class="cls-16" d="M189.53,52.11s15,6,42.5-6c0,0-24.28.26-31.89-12.88,0,0,7.39,11.86-2.61,16.86Z"/><path class="cls-17" d="M261.79,53.91a35.23,35.23,0,0,0-12.6,19,70.1,70.1,0,0,0,6.34-8.81l16.57.61c6.83-7.42,2.43-14.61,2.43-14.61C270.53,46.11,261.79,53.91,261.79,53.91Z"/><path class="cls-17" d="M199.53,21.11s-9-2-9-5a17.56,17.56,0,0,1,2.71-3.45,4.73,4.73,0,0,1-.71-.55s-7,4-3,13c0,0,4,5,3,7,0,0-8-7-8-10,0,0,0-9,2-10a15,15,0,0,0-6,12s-10,7-13,15a6.19,6.19,0,0,0,2,4s0,.43-.87.44c5,2.2,11.47,3.15,15.87-3.44,0,0-11.75,1-12.87-1,0,0,9.87-6,16.87-5,0,0,9,1,5-8C193.53,26.11,202.53,23.11,199.53,21.11Z"/><path class="cls-6" d="M185.53,57.11s12.5,20.5,49.5,5.5c0,0,20-8,22-10,0,0-20,27-49,23A29.78,29.78,0,0,1,185.53,57.11Z"/><path class="cls-6" d="M287,20.61c-12-11-33,1-33,1-20,13-16,17-16,17,23-2,14,2,14,2,8-2,20,4,20,4-2,0-6,2-6,2,7-1,10,2,10,2,6.19,3.1-.2,12.19-3.41,16.13l3.22.12C278.78,58.7,288,55.61,288,55.61l6.07-9C300.18,31.61,287,20.61,287,20.61Z"/><path class="cls-6" d="M196.25,79.09l0,0Z"/><path class="cls-6" d="M195.62,81.75h0l0-.12Z"/><path class="cls-6" d="M249.19,72.92c-4.55,5.41-11.18,11.59-18.66,13.19a30.73,30.73,0,0,1-26-1s-7-5-8-7c0,0-.06.17-.15.5h0c-.89-.82-1.86-1.65-2.86-2.47-.05-.86-.05-1.49-.05-1.49,18.94,16.54,31.06,11.47,31.06,11.47C230.69,83.8,245.76,70.8,252.35,65A40.08,40.08,0,0,0,249.19,72.92Z"/><path class="cls-6" d="M196.08,79.72l0,.11Z"/><path class="cls-6" d="M195.87,80.61a1.16,1.16,0,0,1,0,.18A1.16,1.16,0,0,0,195.87,80.61Z"/><path d="M198.53,60.11s11-2,18,1C216.53,61.11,203.53,63.11,198.53,60.11Z"/><path class="cls-6" d="M313.69,42.42A129,129,0,0,1,315,57.49c.42,6.38-11.42,12.62-11.42,12.62,1-3-5.77-12.62-5.77-12.62C305,68.87,293.53,76.11,292,76c-.75,0-.87-2.18-.81-4.35A20.76,20.76,0,0,1,289,73.78h0c-.06,6.45-.43,14.34-.43,14.34,3,2,6,7,6,7,4,5,2,15,2,15,4-5.93,7-8.7,9.39-9.76h0S313,70.11,316.77,64.11C316.77,64.11,320.5,51.55,313.69,42.42Z"/><path d="M307.53,98.11c0-.75-.3-1.11-.79-1.19-.51,2.11-.82,3.42-.82,3.42h0c-2.36,1.06-5.44,3.83-9.39,9.76a31.7,31.7,0,0,0,.49-5.74l-5.64,8.83a5.36,5.36,0,0,1,2.13,4.08l7.08-10.11C309.65,97.23,307.53,98.11,307.53,98.11Z"/><path class="cls-17" d="M189.53,95.11c1-3,5-7,5-7a75.33,75.33,0,0,1,1.85-9.51,143.93,143.93,0,0,0-14.35-11c-5.65-3.53-12.29-16.51-15.71-23.85-.34,1.48-.66,5.61,3.21,13.35a64.1,64.1,0,0,0,7,12,11.25,11.25,0,0,1,4,5s2,14,5,23l3,13,1.26,2.12.74-5.12C189.53,98.11,189.53,95.11,189.53,95.11Z"/><path class="cls-6" d="M301.94,40.42s3.42-1.34,7.08-2.54c-1.53-1.08-4-2.39-6.49-1.77a32.86,32.86,0,0,0-7-26,24,24,0,0,0-8.82-6.78c6.05,6.33,12.87,15.61,12.85,25.32,0,0,1.74,9.49-11.65,25,0,0,3,2.35,7.8-6.09,0,0,1.28-4.26,8.55-2.34C304.26,45.2,311.35,42.72,301.94,40.42Z"/></g><g id="ropa"><path class="cls-18" d="M451.53,313.11s-5-17-11-23c0,0-3-17-11-27,0,0-13-32-20-41,0,0-13-27-32-37,0,0-43-20-56-24a112.34,112.34,0,0,0-32-9.83c-1.58,3.29-2.83,5.65-2.83,5.65-7,12-33.86,33.15-33.86,33.15-11,5-17,1.08-17,1.08-7-6-28.12-25.88-28.12-25.88A38.74,38.74,0,0,1,199.27,155c-14.76,2.77-57.57,12.45-87.74,36.1,0,0-30,55-29,62,0,0-5,2-15,30,0,0-2,12-9,19,0,0-8,12-7,23l1,2s4.27-16,11.63-17c0,0,13.37-8,30.37,12l304,10s27-16,40-11l10,6S453.53,319.11,451.53,313.11Z"/><path class="cls-1" d="M81.37,254.09c-2,2.13-6.62,8.78-13.84,29,0,0-2,12-9,19,0,0-8,12-7,23l1,2s4.27-16,11.63-17c0,0,12.76-7.62,29.2,10.68C88.5,298.51,83.76,274.05,81.37,254.09Z"/><path class="cls-19" d="M82.53,293.11c-9.76-.47-17.25,6.09-25.12,10.83l0,.07"/><path class="cls-20" d="M88.31,296.45c-10.13-.07-24.34,6.75-33,11.49-2.11,4.5-4.39,11-3.82,17.17l1,2s4.27-16,11.63-17c0,0,11.5-6.86,26.73,8.09.56-.43,1.1-.87,1.62-1.31C91.07,310.18,89.65,303.31,88.31,296.45Z"/><path class="cls-21" d="M298.75,153.09c-2.89-.69-6-1.3-9.26-1.81-1.58,3.29-2.83,5.65-2.83,5.65-7,12-33.86,33.15-33.86,33.15-11,5-17,1.08-17,1.08-7-6-28.12-25.88-28.12-25.88A38.74,38.74,0,0,1,199.27,155c-1,.2-2.21.42-3.52.69-.52,7.24-1.33,24,1.78,29.41,0,0,6,19,17,25,0,0,13,9.7,29,9.85,0,0,21,1.15,34-10.85,0,0,14-9,20-26,0,0,3-7,2-20C299.53,163.11,299.27,158.19,298.75,153.09Z"/><path class="cls-20" d="M451.53,313.11s-5-17-11-23c0,0-3-17-11-27,0,0-13-32-20-41,0,0-13-27-32-37,0,0-43-20-56-24a107.1,107.1,0,0,0-22.78-8c.52,5.09.78,10,.78,10a60.51,60.51,0,0,1-.28,12.66c3.26-6.38,7.05-12.84,8.82-12.44,0,0,9.46-6.22,7.46,14.78,0,0,3-7,4-6,0,0,3.6,13.94,2.8,18,0,0,8.2-20,12.2-19,0,0,8-3,24,10,0,0,21,14,21,23A136.22,136.22,0,0,1,373.09,220s10.44-13.88,10.44-15.88c0,0,9.59,14,13.3,37h10.95s7.75,6,4.75,9l-4.22,23,1.22,3s21-1,27,11c0,0-21.44-1.29-31.33,2.92l-7.72,42.05,1,0s27-16,40-11l10,6S453.53,319.11,451.53,313.11Z"/><path class="cls-22" d="M298.75,153.09c-2.89-.69-6-1.3-9.26-1.81-1.58,3.29-2.83,5.65-2.83,5.65-7,12-33.86,33.15-33.86,33.15-11,5-17,1.08-17,1.08-7-6-28.12-25.88-28.12-25.88A38.74,38.74,0,0,1,199.27,155c-1,.2-2.21.42-3.52.69-.52,7.24-1.33,24,1.78,29.41,0,0,6,19,17,25,0,0,13,9.7,29,9.85,0,0,21,1.15,34-10.85,0,0,14-9,20-26,0,0,3-7,2-20C299.53,163.11,299.27,158.19,298.75,153.09Z"/><path class="cls-23" d="M299.53,163.11s-.26-4.92-.78-10c-2.89-.69-6-1.3-9.26-1.81-.57,1.2-1.1,2.26-1.54,3.14l.06-.12.08-.17.15-.3c.87,8.28,1,21.79-4.71,33.28a39.14,39.14,0,0,1-18,15,129,129,0,0,1-14.42,17.58c7.3-.75,18.37-3.14,26.4-10.55,0,0,14-9,20-26C297.53,183.11,300.53,176.11,299.53,163.11Z"/><path class="cls-24" d="M298.75,153.09c-2.89-.69-6-1.3-9.26-1.81-1.58,3.29-2.83,5.65-2.83,5.65-7,12-33.86,33.15-33.86,33.15-11,5-17,1.08-17,1.08-7-6-28.12-25.88-28.12-25.88A38.74,38.74,0,0,1,199.27,155c-1,.2-2.21.42-3.52.69-.52,7.24-1.33,24,1.78,29.41,0,0,6,19,17,25,0,0,13,9.7,29,9.85,0,0,21,1.15,34-10.85,0,0,14-9,20-26,0,0,3-7,2-20C299.53,163.11,299.27,158.19,298.75,153.09Z"/><path class="cls-2" d="M286.62,156.93c-7,12-34.35,33.15-34.35,33.15-11.14,5-17.25,1.08-17.25,1.08-7.13-6-28.53-25.88-28.53-25.88a36.19,36.19,0,0,1-6.46-7.05,113.73,113.73,0,0,0,4.26,18.88c5.07,16,19.28,25,19.28,25,18.27,8,38.57,1,38.57,1,14.21-4,21.31-16,21.31-16,5.83-11.49,5.67-25,4.79-33.28C287.28,155.72,286.62,156.93,286.62,156.93Z"/><path class="cls-3" d="M234.62,190.13l-1-.84-.14-.11-1.17-1-.35-.32-1-.93-.28-.25c-.44-.4-.89-.8-1.34-1.22l-.37-.33-1.14-1-.36-.33L226,182.37l-.3-.27L224.49,181l-.45-.41-1.44-1.34-.38-.35-1.2-1.11-.46-.43L219.11,176l-.18-.17-1.28-1.19-.43-.4-2.78-2.59a2.83,2.83,0,0,0-.25-.24L213,170.23l0,0c-.44-.4-.85-.79-1.24-1.16l0,0c6.08,8.29,19.43,25.13,32.37,32.34,0,0,4.1,2.05,9,3.91a56.81,56.81,0,0,0,9.47-2.15c14-4,21-16,21-16,5.74-11.49,5.58-25,4.71-33.28l-.15.3-.08.17c-.12.23-.23.44-.33.65l0,.07-.32.64,0,.06c-.08.16-.15.31-.22.44l-.07.13-.14.27,0,.07-.09.18-.06.12c-7,12-33.86,33.15-33.86,33.15-11,5-17,1.08-17,1.08l-.94-.81Z"/><path class="cls-25" d="M402.53,300.11s12-12,23-11"/><path class="cls-25" d="M451.61,317.71c-7.23-13.08-23-15.45-36.1-10.36a43.77,43.77,0,0,0-12,6.76,37.92,37.92,0,0,1,11.7-7.47c13-5.63,30.09-2.88,36.38,11.07Z"/><path d="M252.8,190.08c9.63-8.3,19.27-16.62,27.85-26,4.91-5.12,8-11.53,10.93-17.91q1.82-3.82,3.29-7.81a103.16,103.16,0,0,1-6.34,15.76,33.66,33.66,0,0,1-4.45,7.29c-8.93,11-20,20.11-31.28,28.67Z"/><path d="M190.21,109l-.68,5.4,0,.27a63.19,63.19,0,0,0-5.28-11.15l.09.09a6.19,6.19,0,0,0-2-.55c-2.7-.31-2.89,2.3-2.57,4.33.45,7.12,1.36,14.58,4.73,20.95,1.15,2,2.77,3.94,5,4.62l-.32,0c.89-.43,2.81-1,2.91.33,2.28,12,7.16,24.18,16.65,32.26l13.59,12.79c4.54,4.25,9.07,8.52,13.74,12.61,5.07,2.69,11.67,1.34,16.8-.92l3.8-3-3.75,3.11c-5.26,2.42-11.77,4.05-17.2,1.22-4.74-4-9.33-8.25-13.93-12.43s-9.14-8.46-13.68-12.71a44,44,0,0,1-11.27-14.92,69.65,69.65,0,0,1-5.66-17.94v0a.07.07,0,0,0,0,0s0,0,0,0a1.38,1.38,0,0,0-.48,0,6.83,6.83,0,0,0-1.3.43c-5-1.68-6.92-7.36-8.21-12a71.78,71.78,0,0,1-2-16.68c.31-3,3.19-3.15,5.44-2a57.3,57.3,0,0,1,5,11.15l-.14,0,.82-5.38Z"/><path class="cls-19" d="M112,192.08l22.53,30c-4.14-8.26-17.82-24.71-22.45-30.18Z"/><path class="cls-25" d="M356.44,241.11h7.26c1.29-13.37-1.87-35.57-2.88-42.11C361.37,206.73,358.1,230,356.44,241.11Z"/><path class="cls-25" d="M360.82,199a8.27,8.27,0,0,0-.29-1.89S360.64,197.8,360.82,199Z"/><path class="cls-25" d="M394.53,201.11s-8,4-27,30"/><path class="cls-20" d="M304.53,193.11a113.72,113.72,0,0,1-18,40,217,217,0,0,0,18-40Z"/><path class="cls-20" d="M282.53,208.11c-6.17,10.55-15.06,20.29-26.54,25,1.32-.81,2.7-1.47,3.94-2.38,9-5.9,16.2-14.08,22.6-22.62Z"/><path class="cls-20" d="M209.53,209.11c1.8,3.15,4.17,7.84,5.87,11.1s3.93,8,6.13,10.9c-3.07-2.9-5-6.77-7-10.44a91.52,91.52,0,0,1-5-11.56Z"/><path class="cls-20" d="M173.53,163.11a24.06,24.06,0,0,1,3.86,5.23c1,1.91,2.07,4,1.92,6.21-1.44-4.07-4.05-7.47-5.78-11.44Z"/><path class="cls-20" d="M182.53,188.11a217.65,217.65,0,0,0,20,48q-.92-1.35-1.8-2.73a133.39,133.39,0,0,1-18.2-45.27Z"/><path class="cls-25" d="M141,241.11h6.1c-1.83-9.56-9.61-50.35-9.61-53,0,0-2,32-1,38Z"/><path class="cls-2" d="M447.73,351.11l.8-24-10-6c-13-5-40,11-40,11l-1,0-3.49,19Z"/><path class="cls-24" d="M447.73,351.11l.8-24-10-6c-13-5-40,11-40,11l-1,0-3.49,19Z"/><path class="cls-12" d="M451.53,313.11s-5-17-11-23c0,0-3-17-11-27,0,0-13-32-20-41,0,0-13-27-32-37,0,0-43-20-56-24a112.34,112.34,0,0,0-32-9.83c-1.58,3.29-2.83,5.65-2.83,5.65-7,12-33.86,33.15-33.86,33.15-11,5-17,1.08-17,1.08-7-6-28.12-25.88-28.12-25.88A38.74,38.74,0,0,1,199.27,155c-14.76,2.77-57.57,12.45-87.74,36.1,0,0-30,55-29,62,0,0-5,2-15,30,0,0-2,12-9,19,0,0-8,12-7,23l1,2s4.27-16,11.63-17c0,0,13.37-8,30.37,12l304,10s27-16,40-11l10,6S453.53,319.11,451.53,313.11Z"/><path class="cls-3" d="M398.53,332.11l-1,0-3.41,18.58.46.45h4.38c6.72-5.59,25.7-21,30.62-21,0,0,11.39-5,15.19,5.52l3.3,6.68.51-15.2-10-6C425.53,316.11,398.53,332.11,398.53,332.11Z"/><path class="cls-24" d="M398.53,332.11l-1,0-3.41,18.58.46.45h4.38c6.72-5.59,25.7-21,30.62-21,0,0,11.39-5,15.19,5.52l3.3,6.68.51-15.2-10-6C425.53,316.11,398.53,332.11,398.53,332.11Z"/><path class="cls-2" d="M100.31,351.11c-2.17-9.06-4.57-19.42-7-30.32-16.44-18.3-29.2-10.68-29.2-10.68-3.32.45-6,3.95-8,7.65-1.49,9.22-4.19,24.57-7,33.35Z"/><path class="cls-24" d="M100.31,351.11c-2.17-9.06-4.57-19.42-7-30.32-16.44-18.3-29.2-10.68-29.2-10.68-3.32.45-6,3.95-8,7.65-1.49,9.22-4.19,24.57-7,33.35Z"/><path class="cls-3" d="M93.36,320.79c-16.44-18.3-29.2-10.68-29.2-10.68-3.32.45-6,3.95-8,7.65-.33,2.05-.72,4.41-1.16,6.92,4.14-5.39,10.31-12.05,14.91-11.11,0,0,15.93,5.59,24.36,11.53C94,323.67,93.67,322.24,93.36,320.79Z"/><path class="cls-24" d="M93.36,320.79c-16.44-18.3-29.2-10.68-29.2-10.68-3.32.45-6,3.95-8,7.65-.33,2.05-.72,4.41-1.16,6.92,4.14-5.39,10.31-12.05,14.91-11.11,0,0,15.93,5.59,24.36,11.53C94,323.67,93.67,322.24,93.36,320.79Z"/><path class="cls-20" d="M138,241.11a25.29,25.29,0,0,1-1.51-4.47,57.82,57.82,0,0,0-3.6-8.65c-.35-.7-.72-1.4-1.1-2.08l-.73-2.3c2.34,2.23,3.39,5.38,4.73,8.25,1.1,2.95,2.67,6,2.21,9.25Z"/><path class="cls-20" d="M136.19,241.11c-9.45-6.91-22.66-23-22.66-23,1.68,8.4,9.71,19.63,12.23,23Z"/></g><g id="laptop"><path class="cls-26" d="M490.36,506.11H8.25a7.74,7.74,0,0,1-7.43-9.93L41.89,356.67a7.74,7.74,0,0,1,7.43-5.56H451.64a7.74,7.74,0,0,1,7.46,5.68l38.72,139.5A7.74,7.74,0,0,1,490.36,506.11Z"/><path class="cls-27" d="M80.53,246.11s0-4,7-5H407.78s7.75,6,4.75,9L388,383.61H108.45S85,295.61,80.53,246.11Z"/><polygon class="cls-28" points="195.17 246.28 137.76 383.61 190.87 383.61 248.28 246.28 195.17 246.28"/><polygon class="cls-28" points="310.17 246.28 252.76 383.61 305.87 383.61 363.29 246.28 310.17 246.28"/><path class="cls-12" d="M80.53,246.11s0-4,7-5H407.78s7.75,6,4.75,9L388,383.61H108.45S85,295.61,80.53,246.11Z"/><path class="cls-29" d="M407.78,241.11H87.53c-7,1-7,5-7,5,.25,2.77.56,5.66.92,8.64,2.79-4.9,6.47-8.78,11.06-8.46l311,0a17.86,17.86,0,0,1,8.52,6.44l.05-.3a10.28,10.28,0,0,1,.87-2.89C414.59,246.38,407.78,241.11,407.78,241.11Z"/></g></g></svg>