<svg xmlns="http://www.w3.org/2000/svg" viewBox="0 0 254.22 293.55"><defs><style>.cls-1{fill:#f97316;}</style></defs><g id="Capa_2" data-name="Capa 2"><g id="Capa_1-2" data-name="Capa 1"><path class="cls-1" d="M65.07,210.51V99.07q0-11.22-11.82-15.19V83H92.09V200.38h32.75q11.24,0,15.2-11.82h.84v21.95Z"/><path class="cls-1" d="M190.68,210.51V99.07q0-11.22,10.29-15.19V83H154.28q-21.61,0-34.7,13.34t-13,32.84q0,19.85,9.84,33.52,13.3,18.32,42.32,18.32v-.85a59.52,59.52,0,0,1-19.78-19.67q-7.4-12.06-7.4-28.62,0-17.22,6.76-26.67,8.59-12.08,22-12.08h6.9V210.51Z"/><path class="cls-1" d="M127.11,293.55,0,220.16V73.39L127.11,0,254.22,73.39V220.16ZM10,214.39,127.11,282l117.11-67.61V79.16L127.11,11.55,10,79.16Z"/><path class="cls-1" d="M127.11,271.71,18.91,209.24V84.31l108.2-62.47,108.2,62.47V209.24Zm-105.2-64.2,105.2,60.73,105.2-60.73V86L127.11,25.3,21.91,86Z"/></g></g></svg>